<?xml version="1.0" encoding="UTF-8"?><svg xmlns="http://www.w3.org/2000/svg" xmlns:xlink="http://www.w3.org/1999/xlink" contentScriptType="text/ecmascript" width="375" zoomAndPan="magnify" contentStyleType="text/css" viewBox="0 0 375 374.999991" height="374.999991" preserveAspectRatio="xMidYMid meet" version="1.0"><defs><clipPath id="clip-0"><path d="M 70.46875 60.789062 L 304.46875 60.789062 L 304.46875 314.289062 L 70.46875 314.289062 Z M 70.46875 60.789062 " clip-rule="nonzero"/></clipPath></defs><path fill="rgb(93.328857%, 90.589905%, 55.688477%)" d="M 187.5 0 C 83.945312 0 0 83.945312 0 187.5 C 0 291.054688 83.945312 375 187.5 375 C 291.054688 375 375 291.054688 375 187.5 C 375 83.945312 291.054688 0 187.5 0 Z M 187.5 0 " fill-opacity="1" fill-rule="nonzero"/><g clip-path="url(#clip-0)"><path fill="rgb(41.958618%, 29.798889%, 29.798889%)" d="M 185.140625 61.402344 C 184.339844 61.695312 182.867188 61.992188 181.898438 61.992188 C 180.929688 62.035156 180.003906 62.203125 179.878906 62.453125 C 179.753906 62.664062 179.039062 62.875 178.363281 62.875 C 177.648438 62.875 176.050781 63.339844 174.789062 63.929688 C 173.523438 64.519531 172.21875 64.980469 171.882812 64.980469 C 171.589844 64.980469 171.167969 65.191406 171.042969 65.445312 C 170.875 65.65625 169.695312 66.371094 168.390625 67.003906 C 166.835938 67.71875 164.8125 69.316406 162.582031 71.507812 C 159.597656 74.496094 158.878906 75.464844 156.609375 80.140625 C 155.175781 83.042969 153.664062 85.78125 153.285156 86.246094 C 151.980469 87.71875 149.453125 89.402344 148.570312 89.402344 C 148.066406 89.402344 147.6875 89.570312 147.6875 89.824219 C 147.6875 90.035156 147.351562 90.246094 146.886719 90.246094 C 146.003906 90.246094 142.722656 91.929688 140.574219 93.488281 C 139.734375 94.078125 138.21875 95.675781 137.167969 97.023438 C 136.113281 98.371094 135.144531 99.464844 134.976562 99.507812 C 134.765625 99.507812 134.640625 99.761719 134.640625 100.054688 C 134.640625 100.855469 132.664062 102.625 132.367188 102.078125 C 132.03125 101.570312 127.949219 100.351562 126.5625 100.351562 C 126.015625 100.351562 125.382812 100.183594 125.171875 99.972656 C 124.921875 99.761719 123.910156 99.507812 122.859375 99.382812 C 121.804688 99.296875 120.667969 99.085938 120.332031 98.960938 C 117.933594 98.078125 101.101562 97.78125 95.925781 98.539062 C 92.683594 99.003906 84.941406 101.023438 81.617188 102.246094 C 79.511719 103.003906 75.980469 105.023438 74.675781 106.160156 C 73.242188 107.382812 71.519531 109.949219 71.519531 110.75 C 71.519531 111.214844 71.265625 111.804688 71.011719 112.097656 C 70.296875 112.773438 70.296875 119.089844 71.011719 119.804688 C 71.265625 120.054688 71.519531 120.605469 71.519531 120.984375 C 71.519531 121.613281 73.453125 125.78125 74.125 126.667969 C 75.726562 128.644531 76.988281 130.414062 76.988281 130.667969 C 76.988281 130.835938 77.621094 131.636719 78.378906 132.476562 C 79.09375 133.277344 80.480469 134.792969 81.40625 135.804688 C 83.59375 138.164062 86.75 140.730469 89.402344 142.246094 C 90.582031 142.921875 92.097656 143.847656 92.769531 144.226562 C 93.484375 144.648438 94.496094 145.195312 95.082031 145.445312 C 95.671875 145.742188 97.019531 146.371094 98.070312 146.921875 C 99.164062 147.46875 100.429688 147.929688 100.933594 147.929688 C 101.394531 147.929688 101.816406 148.058594 101.816406 148.269531 C 101.816406 148.898438 111.539062 151.214844 115.789062 151.59375 C 117.976562 151.761719 118.1875 151.890625 118.609375 153.066406 C 118.859375 153.742188 119.15625 155.300781 119.324219 156.476562 C 119.492188 157.699219 119.742188 158.835938 119.914062 159.089844 C 120.082031 159.300781 120.332031 160.394531 120.417969 161.445312 C 120.542969 162.542969 120.964844 164.015625 121.34375 164.773438 C 122.101562 166.332031 122.226562 168.183594 121.59375 169.40625 C 121.386719 169.867188 121.007812 170.625 120.753906 171.089844 C 120.542969 171.550781 120.332031 172.183594 120.332031 172.480469 C 120.332031 172.816406 119.871094 173.953125 119.28125 175.046875 C 118.691406 176.140625 118.230469 177.40625 118.230469 177.867188 C 118.230469 178.289062 118.0625 178.667969 117.890625 178.667969 C 117.683594 178.667969 116.925781 179.933594 116.167969 181.488281 C 115.453125 183.089844 114.359375 185.109375 113.808594 186.039062 C 112.714844 187.804688 111.917969 189.449219 111.917969 189.996094 C 111.917969 190.164062 111.582031 190.667969 111.203125 191.132812 C 110.78125 191.59375 108.972656 194.878906 107.203125 198.457031 C 104.59375 203.679688 103.457031 205.492188 101.523438 207.425781 C 100.21875 208.773438 98.535156 210.207031 97.820312 210.542969 C 95.589844 211.679688 93.0625 213.996094 92.011719 215.890625 C 88.394531 222.332031 88.308594 229.28125 91.757812 234.710938 C 93.273438 237.070312 93.273438 238.25 91.925781 240.816406 C 91.171875 242.25 90.875 243.429688 90.875 245.195312 C 90.875 247.511719 90.960938 247.679688 92.769531 249.535156 C 94.875 251.640625 97.945312 253.28125 101.1875 254.082031 C 103.792969 254.710938 105.269531 255.722656 106.445312 257.617188 C 108.71875 261.28125 112.378906 263.890625 116.546875 264.816406 C 122.351562 266.082031 129.507812 267.09375 132.957031 267.09375 C 134.765625 267.09375 140.238281 266.335938 142.214844 265.828125 C 143.269531 265.535156 145.203125 265.238281 146.507812 265.113281 C 148.695312 264.945312 149.160156 265.027344 151.347656 266.417969 C 152.695312 267.21875 154.96875 268.945312 156.398438 270.25 C 163.382812 276.609375 168.8125 279.851562 176.050781 282.039062 C 179.375 283.050781 180.34375 283.132812 184.675781 283.007812 C 189.851562 282.839844 191.871094 282.25 195.070312 279.851562 C 195.785156 279.304688 196.542969 278.882812 196.796875 278.882812 C 197.007812 278.882812 197.554688 278.503906 197.976562 278.039062 C 198.816406 277.113281 202.015625 275.34375 204.582031 274.460938 C 205.59375 274.125 207.78125 273.828125 209.464844 273.828125 C 212.453125 273.828125 212.621094 273.871094 215.984375 276.019531 C 223.054688 280.480469 226.339844 285.027344 233.03125 299.515625 C 233.746094 301.03125 234.710938 303.472656 235.21875 304.988281 C 235.679688 306.503906 236.4375 308.398438 236.859375 309.199219 C 237.28125 310 237.742188 311.21875 237.910156 311.894531 C 238.207031 313.199219 239.089844 314.25 239.804688 314.25 C 240.519531 314.25 240.351562 312.273438 239.425781 310.378906 C 238.964844 309.410156 238.585938 308.1875 238.585938 307.683594 C 238.585938 307.136719 238.414062 306.585938 238.164062 306.460938 C 237.953125 306.335938 237.742188 305.828125 237.742188 305.410156 C 237.742188 304.988281 237.488281 304.101562 237.152344 303.429688 C 236.816406 302.796875 236.015625 301.03125 235.429688 299.515625 C 233.660156 295.304688 229.199219 286.460938 228.820312 286.460938 C 228.652344 286.460938 228.484375 286.167969 228.484375 285.789062 C 228.484375 285.027344 224.992188 280.101562 223.351562 278.542969 C 222.675781 277.957031 222.171875 277.238281 222.171875 276.902344 C 222.171875 276.609375 221.878906 276.355469 221.539062 276.355469 C 221.246094 276.355469 220.785156 276.101562 220.613281 275.808594 C 219.816406 274.503906 215.859375 272.230469 213.25 271.511719 C 210.179688 270.714844 206.140625 270.796875 203.824219 271.765625 C 200.753906 273.027344 197.386719 274.753906 195.449219 276.101562 C 192.714844 278.039062 190.230469 279.304688 189.054688 279.304688 C 188.546875 279.304688 188 279.472656 187.875 279.722656 C 187.582031 280.230469 185.433594 280.269531 184.972656 279.851562 C 184.804688 279.640625 183.371094 279.261719 181.859375 278.964844 C 177.1875 278.082031 176.722656 277.957031 176.722656 277.578125 C 176.722656 277.367188 176.429688 277.199219 176.09375 277.199219 C 175.417969 277.199219 174.996094 277.027344 172.515625 275.722656 C 171.714844 275.300781 170.539062 274.714844 169.949219 274.417969 C 169.359375 274.082031 168.515625 273.449219 168.097656 272.988281 C 167.675781 272.523438 167.128906 272.144531 166.875 272.144531 C 166.625 272.144531 164.855469 270.714844 162.921875 268.988281 C 161.027344 267.261719 159.257812 265.828125 159.050781 265.828125 C 158.796875 265.828125 158.628906 265.660156 158.628906 265.449219 C 158.628906 264.902344 161.109375 263.722656 162.289062 263.722656 C 164.855469 263.722656 171.085938 258.628906 173.484375 254.585938 C 174.449219 252.945312 176.976562 251.132812 179.667969 250.125 C 181.773438 249.324219 187.621094 249.15625 188.84375 249.828125 C 189.601562 250.25 192.082031 250.839844 196.082031 251.597656 C 199.449219 252.226562 211.230469 252.523438 211.230469 251.933594 C 211.230469 251.722656 211.777344 251.511719 212.492188 251.511719 C 213.167969 251.511719 214.429688 251.21875 215.3125 250.839844 C 216.195312 250.460938 217.289062 249.996094 217.753906 249.828125 C 219.605469 249.195312 223.730469 247.089844 224.824219 246.164062 C 225.496094 245.617188 226.210938 245.195312 226.464844 245.195312 C 227.136719 245.195312 234.796875 237.703125 236.984375 234.878906 C 237.488281 234.164062 238.289062 233.238281 238.667969 232.816406 C 239.089844 232.355469 239.425781 231.765625 239.425781 231.554688 C 239.425781 231.300781 239.890625 230.585938 240.476562 229.953125 C 241.066406 229.324219 241.53125 228.523438 241.53125 228.226562 C 241.53125 227.890625 241.824219 227.386719 242.160156 227.089844 C 242.496094 226.796875 242.792969 226.375 242.792969 226.164062 C 242.792969 225.953125 243.464844 224.3125 244.308594 222.542969 C 246.789062 217.28125 248.472656 212.5625 248.054688 211.933594 C 247.925781 211.722656 248.011719 211.089844 248.304688 210.585938 C 249.820312 207.765625 250.113281 195.257812 248.769531 190.667969 C 248.429688 189.40625 248.261719 190.585938 247.128906 202.207031 C 247 203.679688 246.453125 206.039062 245.90625 207.425781 C 245.359375 208.859375 244.898438 210.332031 244.898438 210.753906 C 244.898438 211.175781 244.726562 211.847656 244.519531 212.269531 C 244.308594 212.648438 243.800781 213.742188 243.421875 214.667969 C 241.992188 218.082031 239.71875 222.460938 239.382812 222.460938 C 239.171875 222.460938 239.003906 222.753906 239.003906 223.089844 C 239.003906 223.722656 236.859375 227.007812 234.796875 229.449219 C 234.207031 230.164062 232.988281 231.679688 232.0625 232.816406 C 226.210938 240.101562 217.585938 245.535156 209.546875 247.132812 C 206.726562 247.679688 204.75 247.765625 200.289062 247.554688 C 197.175781 247.429688 193.933594 247.089844 193.09375 246.882812 C 192.25 246.628906 188.925781 246.5 185.730469 246.585938 C 180.046875 246.710938 179.796875 246.753906 177.101562 248.101562 C 175.082031 249.113281 173.566406 250.332031 171.84375 252.3125 C 168.011719 256.609375 164.855469 259.640625 163.46875 260.398438 C 162.792969 260.777344 160.730469 261.324219 158.921875 261.617188 C 155.597656 262.164062 154.671875 261.996094 151.390625 260.3125 C 150.96875 260.101562 149.160156 259.933594 147.351562 259.933594 C 144.699219 259.933594 143.648438 260.144531 141.878906 260.988281 C 140.660156 261.574219 139.144531 262.039062 138.511719 262.039062 C 137.882812 262.039062 137.125 262.25 136.914062 262.460938 C 136.324219 263.050781 118.230469 262.753906 115.578125 262.125 C 113.640625 261.660156 111.203125 260.269531 110.570312 259.34375 C 110.445312 259.089844 109.898438 258.417969 109.433594 257.871094 C 107.75 255.933594 108.761719 255.679688 114.820312 256.398438 C 116.210938 256.566406 117.386719 256.480469 117.976562 256.1875 C 119.574219 255.300781 133.839844 255.976562 143.269531 257.367188 C 153.410156 258.882812 156.691406 258.839844 159.425781 257.324219 C 161.488281 256.1875 165.910156 251.597656 166.707031 249.828125 C 168.6875 245.40625 168.8125 244.734375 168.6875 238.671875 C 168.644531 235.429688 168.433594 232.566406 168.308594 232.355469 C 168.136719 232.101562 167.886719 231.429688 167.71875 230.753906 C 167.253906 228.734375 165.359375 229.660156 165.320312 231.976562 C 165.320312 232.648438 165.488281 234.039062 165.78125 235.089844 C 166.792969 239.089844 166.792969 242.082031 165.738281 244.648438 C 164.308594 248.226562 162.121094 251.765625 160.605469 252.902344 C 157.871094 254.964844 155.683594 255.808594 153.621094 255.597656 C 151.261719 255.34375 145.539062 254.292969 141.796875 253.40625 C 140.28125 253.070312 138.007812 252.777344 136.660156 252.777344 C 135.1875 252.777344 134.21875 252.566406 134.136719 252.269531 C 134.011719 251.890625 131.0625 251.722656 122.605469 251.597656 C 116.378906 251.511719 111.117188 251.261719 110.90625 251.050781 C 110.652344 250.839844 109.6875 250.671875 108.675781 250.671875 C 107.707031 250.671875 106.488281 250.503906 105.941406 250.292969 C 105.394531 250.082031 103.835938 249.574219 102.449219 249.15625 C 100.007812 248.4375 98.449219 247.808594 98.03125 247.261719 C 97.902344 247.132812 97.398438 246.796875 96.894531 246.5 C 95.714844 245.914062 95.671875 244.816406 96.765625 242.671875 C 97.398438 241.40625 97.609375 240.1875 97.609375 237.449219 C 97.609375 234.25 97.484375 233.742188 96.558594 232.648438 C 95.96875 231.933594 95.503906 231.132812 95.503906 230.796875 C 95.503906 230.460938 95.292969 229.996094 95 229.703125 C 94.746094 229.449219 94.496094 227.890625 94.496094 226.082031 C 94.496094 223.300781 94.664062 222.460938 95.925781 219.933594 C 96.09375 219.511719 97.230469 219.175781 98.914062 218.964844 C 102.152344 218.542969 112.378906 218.964844 112.925781 219.511719 C 113.179688 219.765625 113.894531 219.933594 114.527344 219.933594 C 115.660156 219.933594 119.324219 220.941406 123.152344 222.289062 C 124.121094 222.628906 125.675781 223.511719 126.644531 224.183594 C 128.117188 225.28125 128.371094 225.617188 128.246094 226.796875 C 128.160156 227.808594 127.699219 228.394531 126.433594 229.238281 C 124.792969 230.332031 123.742188 230.667969 120.121094 231.132812 C 119.195312 231.257812 118.019531 231.429688 117.515625 231.511719 C 116.210938 231.808594 114.019531 233.785156 114.019531 234.671875 C 114.019531 236.015625 116.292969 237.996094 118.1875 238.292969 C 119.15625 238.460938 120.039062 238.753906 120.164062 238.921875 C 120.292969 239.132812 120.921875 239.300781 121.554688 239.300781 C 122.183594 239.300781 122.859375 239.429688 123.027344 239.636719 C 123.195312 239.808594 124.203125 239.976562 125.214844 239.976562 C 126.941406 240.015625 127.066406 239.976562 127.066406 238.921875 C 127.066406 238.039062 126.730469 237.703125 125.382812 237.113281 C 123.488281 236.3125 123.238281 235.679688 124.667969 235.300781 C 127.824219 234.375 129.339844 233.113281 131.0625 229.910156 C 132.199219 227.679688 132.410156 225.660156 131.609375 223.847656 C 131.023438 222.628906 129.800781 221.195312 129.296875 221.195312 C 129.085938 221.195312 128.035156 220.734375 126.898438 220.144531 C 125.761719 219.554688 124.375 219.089844 123.867188 219.089844 C 123.320312 219.089844 122.773438 218.921875 122.648438 218.667969 C 122.523438 218.417969 121.765625 218.25 120.964844 218.25 C 120.164062 218.25 119.449219 218.082031 119.324219 217.871094 C 119.070312 217.492188 112.296875 216.984375 107.078125 216.941406 C 103.5 216.941406 99.25 217.40625 98.660156 217.871094 C 98.410156 218.039062 97.945312 218.039062 97.652344 217.871094 C 96.976562 217.449219 97.441406 216.984375 100.976562 214.457031 C 104.300781 212.101562 106.023438 210.542969 106.023438 209.953125 C 106.023438 209.699219 106.363281 209.195312 106.824219 208.902344 C 107.667969 208.3125 110.652344 202.753906 110.652344 201.742188 C 110.652344 201.363281 110.949219 200.859375 111.285156 200.5625 C 111.621094 200.3125 112 199.636719 112.167969 199.175781 C 112.421875 198.289062 114.566406 193.449219 115.285156 192.140625 C 117.890625 187.382812 121.847656 178.792969 122.648438 176.101562 C 123.027344 174.835938 123.65625 173.066406 123.996094 172.140625 C 124.332031 171.214844 124.792969 169.488281 125.003906 168.351562 C 125.761719 163.847656 126.097656 162.414062 126.5625 161.53125 C 126.855469 161.027344 127.066406 159.890625 127.109375 159.003906 C 127.152344 156.308594 129.171875 150.921875 131.949219 146.203125 C 132.578125 145.109375 136.070312 141.992188 138.175781 140.6875 C 138.933594 140.183594 137.753906 139.382812 136.660156 139.636719 C 135.144531 140.015625 129.675781 145.699219 128.496094 148.097656 C 127.90625 149.277344 126.941406 151.550781 126.394531 153.195312 C 125.804688 154.792969 125.171875 156.476562 124.960938 156.855469 C 124.710938 157.277344 124.542969 158.078125 124.542969 158.625 C 124.542969 159.214844 124.375 159.804688 124.121094 159.929688 C 123.910156 160.058594 123.699219 160.730469 123.699219 161.363281 C 123.699219 162.878906 122.691406 163.847656 122.226562 162.792969 C 121.59375 161.320312 121.175781 157.699219 120.5 148.5625 C 120.164062 143.46875 119.660156 138.710938 119.449219 137.992188 C 118.945312 136.308594 118.945312 132.898438 119.492188 132.5625 C 119.742188 132.4375 119.914062 131.46875 119.914062 130.414062 C 119.914062 129.363281 120.207031 127.972656 120.542969 127.257812 C 120.921875 126.582031 121.089844 125.824219 120.964844 125.574219 C 120.667969 125.152344 122.144531 123.003906 123.953125 121.191406 C 124.5 120.644531 124.960938 120.054688 124.960938 119.886719 C 124.960938 119.761719 125.46875 119.003906 126.140625 118.246094 C 129.382812 114.457031 130.011719 113.613281 130.011719 113.191406 C 130.011719 112.898438 130.476562 112.265625 131.0625 111.71875 C 131.652344 111.171875 132.117188 110.539062 132.117188 110.328125 C 132.117188 110.078125 132.410156 109.613281 132.746094 109.234375 C 133.503906 108.433594 134.976562 106.328125 136.578125 103.71875 C 138.132812 101.191406 140.742188 97.910156 142.003906 96.941406 C 143.730469 95.550781 147.980469 93.277344 149.453125 92.980469 C 152.316406 92.351562 157.617188 87.550781 158.921875 84.351562 C 160.984375 79.382812 162.582031 76.730469 164.644531 74.835938 C 167.800781 71.929688 170.875 69.613281 171.589844 69.613281 C 171.882812 69.613281 172.683594 69.277344 173.273438 68.8125 C 173.902344 68.390625 175.546875 67.71875 176.933594 67.296875 C 178.324219 66.917969 179.667969 66.453125 179.878906 66.246094 C 181.140625 65.234375 192.925781 64.644531 196.710938 65.402344 C 200.457031 66.160156 210.808594 69.824219 212.746094 71.085938 C 213.292969 71.421875 214.09375 71.71875 214.511719 71.71875 C 214.976562 71.71875 215.566406 71.972656 215.816406 72.308594 C 216.113281 72.644531 216.953125 73.191406 217.710938 73.570312 C 219.226562 74.285156 223.980469 77.867188 228.273438 81.527344 C 231.597656 84.390625 239.550781 88.980469 241.152344 88.980469 C 241.613281 88.980469 242.414062 89.234375 242.917969 89.570312 C 243.675781 90.117188 248.9375 91.507812 253.945312 92.5625 C 255.5 92.855469 260.804688 93.570312 263.625 93.824219 C 264.800781 93.949219 267.535156 94.203125 269.726562 94.457031 C 279.742188 95.507812 303.390625 95.886719 304.273438 95.003906 C 305.328125 93.949219 302.800781 93.699219 289.378906 93.488281 C 281.339844 93.359375 275.40625 93.109375 275.070312 92.898438 C 274.816406 92.644531 272.125 92.351562 269.09375 92.222656 C 266.105469 92.054688 261.8125 91.59375 259.625 91.085938 C 257.4375 90.625 254.953125 90.246094 254.15625 90.246094 C 253.3125 90.246094 252.472656 90.078125 252.261719 89.867188 C 251.671875 89.402344 247.675781 88.140625 246.621094 88.140625 C 246.160156 88.140625 245.652344 87.929688 245.527344 87.71875 C 245.402344 87.464844 244.898438 87.296875 244.433594 87.296875 C 244.011719 87.296875 243.632812 87.128906 243.632812 86.917969 C 243.632812 86.707031 242.960938 86.414062 242.121094 86.285156 C 241.320312 86.117188 239.636719 85.359375 238.457031 84.644531 C 237.238281 83.886719 235.808594 83.042969 235.21875 82.75 C 234.628906 82.457031 233.449219 81.527344 232.609375 80.769531 C 231.765625 79.972656 230.925781 79.296875 230.714844 79.296875 C 230.546875 79.296875 229.328125 78.328125 228.0625 77.148438 C 226.800781 75.972656 225.074219 74.496094 224.277344 73.867188 C 223.476562 73.277344 222.71875 72.6875 222.59375 72.519531 C 221.75 71.59375 208.578125 64.980469 207.527344 64.980469 C 207.234375 64.980469 206.6875 64.8125 206.265625 64.601562 C 204.160156 63.464844 202.308594 62.875 201.003906 62.875 C 200.164062 62.875 199.363281 62.664062 199.238281 62.453125 C 199.109375 62.203125 198.480469 62.035156 197.847656 62.035156 C 197.21875 62.035156 195.785156 61.738281 194.652344 61.402344 C 192.125 60.644531 187.117188 60.644531 185.140625 61.402344 Z M 118.355469 103.71875 C 118.859375 103.929688 120.796875 104.394531 122.648438 104.773438 C 128.582031 105.992188 129.589844 106.371094 129.589844 107.214844 C 129.589844 107.886719 128.496094 109.949219 127.867188 110.457031 C 127.738281 110.582031 127.066406 111.507812 126.433594 112.5625 C 125.761719 113.570312 125.046875 114.667969 124.792969 114.917969 C 124.542969 115.214844 123.277344 116.855469 122.015625 118.625 C 120.753906 120.394531 119.574219 121.824219 119.449219 121.824219 C 119.324219 121.824219 118.945312 122.625 118.648438 123.59375 C 118.3125 124.605469 117.890625 125.613281 117.683594 125.910156 C 117.472656 126.203125 117.429688 126.582031 117.515625 126.75 C 117.640625 126.960938 117.472656 128.4375 117.136719 130.035156 C 116.714844 131.972656 116.589844 133.78125 116.796875 135.300781 C 118.230469 146.5 118.1875 146.878906 115.113281 146.414062 C 114.1875 146.246094 113.222656 145.992188 112.96875 145.824219 C 112.757812 145.65625 111.328125 145.363281 109.8125 145.195312 C 108.339844 145.027344 106.824219 144.730469 106.445312 144.519531 C 106.109375 144.351562 104.382812 143.679688 102.660156 143.046875 C 100.933594 142.414062 99.335938 141.742188 99.125 141.574219 C 98.871094 141.363281 98.449219 141.195312 98.15625 141.195312 C 97.3125 141.195312 90.664062 137.109375 88.5625 135.300781 C 87.003906 133.953125 83.511719 130.457031 82.667969 129.402344 C 78.882812 124.6875 77.28125 121.949219 75.980469 117.949219 C 75.222656 115.675781 75.222656 115.464844 75.894531 113.742188 C 77.113281 110.707031 80.355469 107.972656 83.636719 107.296875 C 84.351562 107.128906 84.984375 106.835938 84.984375 106.625 C 84.984375 106.414062 85.445312 106.246094 85.992188 106.246094 C 86.582031 106.246094 87.171875 106.035156 87.296875 105.824219 C 87.425781 105.570312 88.054688 105.402344 88.6875 105.402344 C 89.320312 105.402344 91.042969 104.980469 92.558594 104.476562 C 94.074219 103.972656 96.640625 103.425781 98.238281 103.257812 C 101.902344 102.878906 117.136719 103.214844 118.355469 103.71875 Z M 118.355469 103.71875 " fill-opacity="1" fill-rule="nonzero"/></g><path fill="rgb(41.958618%, 29.798889%, 29.798889%)" d="M 226.800781 105.78125 C 226.800781 106.878906 228.949219 108.351562 230.460938 108.351562 C 231.136719 108.351562 231.851562 108.519531 232.105469 108.730469 C 232.3125 108.941406 237.488281 109.191406 243.632812 109.320312 C 254.324219 109.53125 257.941406 109.910156 263.203125 111.296875 C 264.128906 111.550781 265.644531 111.972656 266.570312 112.183594 C 267.496094 112.394531 269.011719 112.941406 269.9375 113.363281 C 270.863281 113.824219 272.082031 114.371094 272.671875 114.625 C 277.089844 116.519531 280.917969 120.265625 282.898438 124.5625 C 284.117188 127.214844 284.453125 128.226562 284.453125 129.402344 C 284.453125 130.078125 284.582031 130.710938 284.789062 130.835938 C 285.507812 131.296875 284.707031 135.59375 283.277344 138.667969 C 282.351562 140.6875 278.058594 146.078125 275.699219 148.140625 C 274.902344 148.816406 273.847656 149.785156 273.300781 150.246094 C 272.796875 150.710938 272.082031 151.257812 271.746094 151.511719 C 268.253906 153.824219 266.484375 154.960938 265.9375 155.214844 C 265.601562 155.382812 265.011719 155.679688 264.675781 155.890625 C 263.246094 156.816406 259.203125 158.457031 258.40625 158.457031 C 257.941406 158.457031 257.480469 158.625 257.351562 158.835938 C 256.765625 159.804688 245.570312 160.480469 243.464844 159.71875 C 240.816406 158.710938 240.015625 158.203125 238.414062 156.605469 C 236.691406 154.878906 233.535156 149.234375 233.535156 147.890625 C 233.535156 147.46875 233.367188 147.003906 233.113281 146.878906 C 232.902344 146.75 232.691406 146.164062 232.691406 145.574219 C 232.691406 145.027344 232.523438 144.226562 232.3125 143.804688 C 231.554688 142.371094 230.96875 139.679688 230.589844 136.140625 C 230.421875 134.160156 230.042969 131.804688 229.789062 130.878906 C 229.535156 129.953125 229.328125 128.519531 229.328125 127.675781 C 229.328125 125.910156 228.316406 123.128906 227.980469 123.972656 C 227.851562 124.308594 227.851562 125.953125 227.9375 127.636719 C 228.105469 130.078125 227.980469 130.878906 227.433594 131.507812 C 226.84375 132.140625 226.84375 132.4375 227.390625 134.078125 C 228.359375 137.066406 228.570312 138.289062 228.738281 141.195312 C 228.820312 142.710938 229.074219 144.308594 229.285156 144.773438 C 229.496094 145.234375 229.875 147.003906 230.167969 148.6875 C 230.546875 150.921875 230.882812 151.847656 231.472656 152.183594 C 231.933594 152.394531 232.1875 152.773438 232.0625 152.984375 C 231.683594 153.613281 236.480469 160.519531 237.785156 161.238281 C 241.910156 163.550781 245.066406 164.351562 250.113281 164.351562 C 252.429688 164.351562 255.121094 164.140625 256.046875 163.890625 C 256.972656 163.636719 258.488281 163.300781 259.414062 163.132812 C 262.445312 162.542969 270.988281 158.542969 271.324219 157.574219 C 271.410156 157.363281 271.703125 157.195312 272.039062 157.195312 C 273.34375 157.195312 280.707031 150.667969 284.957031 145.699219 C 286.683594 143.679688 289.503906 137.613281 289.503906 135.886719 C 289.503906 135.300781 289.671875 134.5 289.882812 134.121094 C 290.386719 133.152344 288.664062 124.730469 287.777344 123.761719 C 287.566406 123.507812 287.398438 123.046875 287.398438 122.710938 C 287.398438 122.371094 286.9375 121.488281 286.347656 120.730469 C 285.757812 119.972656 285.296875 119.257812 285.296875 119.128906 C 285.296875 118.667969 280.75 114.328125 279.320312 113.445312 C 276.375 111.675781 271.828125 109.613281 270.777344 109.613281 C 270.230469 109.613281 269.640625 109.402344 269.515625 109.191406 C 269.386719 108.941406 268.800781 108.773438 268.292969 108.773438 C 267.746094 108.773438 266.652344 108.476562 265.855469 108.183594 C 264.96875 107.804688 261.476562 107.382812 257.058594 107.085938 C 253.019531 106.835938 249.0625 106.414062 248.179688 106.203125 C 247.210938 105.949219 246.285156 105.949219 245.527344 106.246094 C 244.9375 106.457031 241.234375 106.667969 237.320312 106.667969 C 230.925781 106.667969 230.042969 106.582031 228.820312 105.824219 C 227.097656 104.773438 226.800781 104.773438 226.800781 105.78125 Z M 226.800781 105.78125 " fill-opacity="1" fill-rule="nonzero"/><path fill="rgb(41.958618%, 29.798889%, 29.798889%)" d="M 196.503906 146.078125 C 192.546875 146.921875 190.777344 147.890625 188.296875 150.542969 C 183.878906 155.257812 182.109375 161.574219 184.507812 164.183594 C 185.855469 165.617188 187.203125 165.320312 188.800781 163.171875 C 189.433594 162.332031 190.273438 161.277344 190.695312 160.859375 C 191.496094 160.097656 194.1875 159.847656 194.609375 160.5625 C 194.988281 161.152344 198.523438 161.066406 200.289062 160.4375 C 202.097656 159.804688 205.339844 157.996094 205.339844 157.617188 C 205.339844 157.488281 205.71875 156.984375 206.140625 156.476562 C 210.347656 151.972656 207.949219 146.246094 201.886719 146.246094 C 200.960938 146.246094 199.910156 146.078125 199.53125 145.910156 C 199.152344 145.699219 197.765625 145.785156 196.503906 146.078125 Z M 196.503906 146.078125 " fill-opacity="1" fill-rule="nonzero"/></svg>